<svg width="36" height="46" viewBox="0 0 36 46" fill="none" xmlns="http://www.w3.org/2000/svg">
<mask id="path-1-outside-1_918_5837" maskUnits="userSpaceOnUse" x="0" y="0" width="36" height="46" fill="black">
<rect fill="white" width="36" height="46"/>
<path d="M17.667 1C26.872 1 34.334 8.49506 34.334 17.7412C34.334 23.2545 31.6807 28.1449 27.5869 31.1953C24.446 33.5677 19.9724 37.3237 18.9512 43.3936C18.8508 43.9896 18.3764 44.4602 17.7861 44.5166L17.667 44.5225C17.0223 44.5225 16.4899 44.0293 16.3828 43.3936C15.3615 37.3233 10.8871 33.5677 7.74609 31.1953C3.65267 28.1448 1.00001 23.2542 1 17.7412C1 8.49508 8.46196 1.00003 17.667 1Z"/>
</mask>
<path d="M17.667 1C26.872 1 34.334 8.49506 34.334 17.7412C34.334 23.2545 31.6807 28.1449 27.5869 31.1953C24.446 33.5677 19.9724 37.3237 18.9512 43.3936C18.8508 43.9896 18.3764 44.4602 17.7861 44.5166L17.667 44.5225C17.0223 44.5225 16.4899 44.0293 16.3828 43.3936C15.3615 37.3233 10.8871 33.5677 7.74609 31.1953C3.65267 28.1448 1.00001 23.2542 1 17.7412C1 8.49508 8.46196 1.00003 17.667 1Z" fill="#DB4437"/>
<path d="M17.667 1V0H17.667L17.667 1ZM34.334 17.7412L35.334 17.7412V17.7412H34.334ZM27.5869 31.1953L26.9894 30.3934L26.9842 30.3974L27.5869 31.1953ZM18.9512 43.3936L19.9373 43.5596L19.9373 43.5595L18.9512 43.3936ZM17.7861 44.5166L17.8353 45.5154L17.8583 45.5143L17.8812 45.5121L17.7861 44.5166ZM17.667 44.5225V45.5225H17.6916L17.7161 45.5213L17.667 44.5225ZM16.3828 43.3936L15.3967 43.5595L15.3967 43.5596L16.3828 43.3936ZM7.74609 31.1953L8.34881 30.3973L8.34364 30.3935L7.74609 31.1953ZM1 17.7412H0V17.7412L1 17.7412ZM17.667 1V2C26.3156 2 33.334 9.04316 33.334 17.7412H34.334H35.334C35.334 7.94697 27.4285 0 17.667 0V1ZM34.334 17.7412L33.334 17.7412C33.334 22.9263 30.84 27.5242 26.9894 30.3934L27.5869 31.1953L28.1844 31.9972C32.5215 28.7655 35.334 23.5827 35.334 17.7412L34.334 17.7412ZM27.5869 31.1953L26.9842 30.3974C23.8312 32.7789 19.0564 36.7409 17.965 43.2276L18.9512 43.3936L19.9373 43.5595C20.8884 37.9065 25.0607 34.3566 28.1896 31.9933L27.5869 31.1953ZM18.9512 43.3936L17.9651 43.2275C17.9337 43.4137 17.7952 43.5112 17.691 43.5211L17.7861 44.5166L17.8812 45.5121C18.9576 45.4092 19.7679 44.5656 19.9373 43.5596L18.9512 43.3936ZM17.7861 44.5166L17.737 43.5178L17.6179 43.5237L17.667 44.5225L17.7161 45.5213L17.8353 45.5154L17.7861 44.5166ZM17.667 44.5225V43.5225C17.5567 43.5225 17.4028 43.4288 17.3689 43.2275L16.3828 43.3936L15.3967 43.5596C15.5769 44.6297 16.4879 45.5225 17.667 45.5225V44.5225ZM16.3828 43.3936L17.369 43.2276C16.2775 36.7404 11.5017 32.7787 8.3488 30.3973L7.74609 31.1953L7.14339 31.9933C10.2725 34.3567 14.4455 37.9061 15.3967 43.5595L16.3828 43.3936ZM7.74609 31.1953L8.34364 30.3935C4.49347 27.5243 2.00001 22.9261 2 17.7412L1 17.7412L0 17.7412C9.59635e-06 23.5823 2.81188 28.7654 7.14855 31.9972L7.74609 31.1953ZM1 17.7412H2C2 9.04318 9.01843 2.00003 17.667 2L17.667 1L17.667 0C7.9055 3.38554e-05 0 7.94698 0 17.7412H1Z" fill="url(#paint0_linear_918_5837)" mask="url(#path-1-outside-1_918_5837)"/>
<path d="M27.8111 22.5206L19.3916 5.88463C18.7949 4.70512 17.2051 4.70512 16.6079 5.88463L8.18892 22.5206C8.05935 22.7767 7.99439 23.0641 8.00038 23.3549C8.00637 23.6456 8.08311 23.9297 8.2231 24.1795C8.3631 24.4293 8.56156 24.6362 8.79913 24.78C9.0367 24.9238 9.30526 24.9996 9.57858 25H26.419C26.6925 25 26.9613 24.9246 27.1993 24.7809C27.4372 24.6373 27.636 24.4305 27.7763 24.1806C27.9166 23.9308 27.9935 23.6465 27.9996 23.3555C28.0057 23.0646 27.9408 22.7769 27.8111 22.5206ZM18 22.4244C17.8046 22.4244 17.6136 22.3628 17.4511 22.2473C17.2886 22.1318 17.162 21.9676 17.0872 21.7755C17.0124 21.5834 16.9928 21.372 17.031 21.1681C17.0691 20.9642 17.1632 20.7769 17.3014 20.6298C17.4395 20.4828 17.6156 20.3827 17.8072 20.3421C17.9989 20.3016 18.1976 20.3224 18.3781 20.402C18.5586 20.4815 18.7129 20.6163 18.8215 20.7892C18.9301 20.962 18.988 21.1653 18.988 21.3732C18.988 21.5112 18.9625 21.6479 18.9128 21.7755C18.8632 21.903 18.7904 22.0189 18.6986 22.1165C18.6069 22.2142 18.498 22.2916 18.3781 22.3444C18.2582 22.3973 18.1297 22.4244 18 22.4244ZM19.073 11.8515L18.7894 18.2641C18.7894 18.4872 18.7062 18.7011 18.5579 18.8588C18.4097 19.0165 18.2086 19.1051 17.999 19.1051C17.7894 19.1051 17.5883 19.0165 17.4401 18.8588C17.2919 18.7011 17.2086 18.4872 17.2086 18.2641L16.925 11.8541C16.9187 11.701 16.9413 11.548 16.9917 11.4043C17.0421 11.2607 17.1191 11.1293 17.2182 11.018C17.3174 10.9067 17.4365 10.8178 17.5686 10.7565C17.7007 10.6953 17.8431 10.663 17.9872 10.6615H17.9975C18.1426 10.6614 18.2862 10.6926 18.4196 10.7532C18.5531 10.8138 18.6736 10.9025 18.7739 11.014C18.8742 11.1255 18.9523 11.2575 19.0033 11.402C19.0544 11.5465 19.0774 11.7005 19.071 11.8547L19.073 11.8515Z" fill="#FFE121"/>
<defs>
<linearGradient id="paint0_linear_918_5837" x1="17.667" y1="1" x2="17.667" y2="44.5225" gradientUnits="userSpaceOnUse">
<stop stop-color="white"/>
<stop offset="1" stop-color="white" stop-opacity="0.35"/>
</linearGradient>
</defs>
</svg>
