<svg width="36" height="46" viewBox="0 0 36 46" fill="none" xmlns="http://www.w3.org/2000/svg">
<mask id="path-1-outside-1_770_9858" maskUnits="userSpaceOnUse" x="0" y="0" width="36" height="46" fill="black">
<rect fill="white" width="36" height="46"/>
<path d="M17.667 1C26.872 1 34.334 8.49506 34.334 17.7412C34.334 23.2545 31.6807 28.1449 27.5869 31.1953C24.446 33.5677 19.9724 37.3237 18.9512 43.3936C18.8508 43.9896 18.3764 44.4602 17.7861 44.5166L17.667 44.5225C17.0223 44.5225 16.4899 44.0293 16.3828 43.3936C15.3615 37.3233 10.8871 33.5677 7.74609 31.1953C3.65267 28.1448 1.00001 23.2542 1 17.7412C1 8.49508 8.46196 1.00003 17.667 1Z"/>
</mask>
<path d="M17.667 1C26.872 1 34.334 8.49506 34.334 17.7412C34.334 23.2545 31.6807 28.1449 27.5869 31.1953C24.446 33.5677 19.9724 37.3237 18.9512 43.3936C18.8508 43.9896 18.3764 44.4602 17.7861 44.5166L17.667 44.5225C17.0223 44.5225 16.4899 44.0293 16.3828 43.3936C15.3615 37.3233 10.8871 33.5677 7.74609 31.1953C3.65267 28.1448 1.00001 23.2542 1 17.7412C1 8.49508 8.46196 1.00003 17.667 1Z" fill="#4CAD56"/>
<path d="M17.667 1V0H17.667L17.667 1ZM34.334 17.7412L35.334 17.7412V17.7412H34.334ZM27.5869 31.1953L26.9894 30.3934L26.9842 30.3974L27.5869 31.1953ZM18.9512 43.3936L19.9373 43.5596L19.9373 43.5595L18.9512 43.3936ZM17.7861 44.5166L17.8353 45.5154L17.8583 45.5143L17.8812 45.5121L17.7861 44.5166ZM17.667 44.5225V45.5225H17.6916L17.7161 45.5213L17.667 44.5225ZM16.3828 43.3936L15.3967 43.5595L15.3967 43.5596L16.3828 43.3936ZM7.74609 31.1953L8.34881 30.3973L8.34364 30.3935L7.74609 31.1953ZM1 17.7412H0V17.7412L1 17.7412ZM17.667 1V2C26.3156 2 33.334 9.04316 33.334 17.7412H34.334H35.334C35.334 7.94697 27.4285 0 17.667 0V1ZM34.334 17.7412L33.334 17.7412C33.334 22.9263 30.84 27.5242 26.9894 30.3934L27.5869 31.1953L28.1844 31.9972C32.5215 28.7655 35.334 23.5827 35.334 17.7412L34.334 17.7412ZM27.5869 31.1953L26.9842 30.3974C23.8312 32.7789 19.0564 36.7409 17.965 43.2276L18.9512 43.3936L19.9373 43.5595C20.8884 37.9065 25.0607 34.3566 28.1896 31.9933L27.5869 31.1953ZM18.9512 43.3936L17.9651 43.2275C17.9337 43.4137 17.7952 43.5112 17.691 43.5211L17.7861 44.5166L17.8812 45.5121C18.9576 45.4092 19.7679 44.5656 19.9373 43.5596L18.9512 43.3936ZM17.7861 44.5166L17.737 43.5178L17.6179 43.5237L17.667 44.5225L17.7161 45.5213L17.8353 45.5154L17.7861 44.5166ZM17.667 44.5225V43.5225C17.5567 43.5225 17.4028 43.4288 17.3689 43.2275L16.3828 43.3936L15.3967 43.5596C15.5769 44.6297 16.4879 45.5225 17.667 45.5225V44.5225ZM16.3828 43.3936L17.369 43.2276C16.2775 36.7404 11.5017 32.7787 8.3488 30.3973L7.74609 31.1953L7.14339 31.9933C10.2725 34.3567 14.4455 37.9061 15.3967 43.5595L16.3828 43.3936ZM7.74609 31.1953L8.34364 30.3935C4.49347 27.5243 2.00001 22.9261 2 17.7412L1 17.7412L0 17.7412C9.59635e-06 23.5823 2.81188 28.7654 7.14855 31.9972L7.74609 31.1953ZM1 17.7412H2C2 9.04318 9.01843 2.00003 17.667 2L17.667 1L17.667 0C7.9055 3.38554e-05 0 7.94698 0 17.7412H1Z" fill="url(#paint0_linear_770_9858)" mask="url(#path-1-outside-1_770_9858)"/>
<g clip-path="url(#clip0_770_9858)">
<path d="M20.126 7.52148L17.7363 13.4346L17.459 14.1211H21.0645L14.0078 24.6787L15.0928 18.1699L15.1904 17.5879H12.6133L14.6748 7.52148H20.126Z" stroke="black"/>
</g>
<defs>
<linearGradient id="paint0_linear_770_9858" x1="17.667" y1="1" x2="17.667" y2="44.5225" gradientUnits="userSpaceOnUse">
<stop stop-color="white"/>
<stop offset="1" stop-color="white" stop-opacity="0.35"/>
</linearGradient>
<clipPath id="clip0_770_9858">
<rect width="20" height="20" fill="white" transform="translate(7 6.95508)"/>
</clipPath>
</defs>
</svg>
