<svg width="36" height="46" viewBox="0 0 36 46" fill="none" xmlns="http://www.w3.org/2000/svg">
<mask id="path-1-outside-1_774_10635" maskUnits="userSpaceOnUse" x="0" y="0" width="36" height="46" fill="black">
<rect fill="white" width="36" height="46"/>
<path d="M17.667 1C26.872 1 34.334 8.49506 34.334 17.7412C34.334 23.2545 31.6807 28.1449 27.5869 31.1953C24.446 33.5677 19.9724 37.3237 18.9512 43.3936C18.8508 43.9896 18.3764 44.4602 17.7861 44.5166L17.667 44.5225C17.0223 44.5225 16.4899 44.0293 16.3828 43.3936C15.3615 37.3233 10.8871 33.5677 7.74609 31.1953C3.65267 28.1448 1.00001 23.2542 1 17.7412C1 8.49508 8.46196 1.00003 17.667 1Z"/>
</mask>
<path d="M17.667 1C26.872 1 34.334 8.49506 34.334 17.7412C34.334 23.2545 31.6807 28.1449 27.5869 31.1953C24.446 33.5677 19.9724 37.3237 18.9512 43.3936C18.8508 43.9896 18.3764 44.4602 17.7861 44.5166L17.667 44.5225C17.0223 44.5225 16.4899 44.0293 16.3828 43.3936C15.3615 37.3233 10.8871 33.5677 7.74609 31.1953C3.65267 28.1448 1.00001 23.2542 1 17.7412C1 8.49508 8.46196 1.00003 17.667 1Z" fill="#2463EB"/>
<path d="M17.667 1V0H17.667L17.667 1ZM34.334 17.7412L35.334 17.7412V17.7412H34.334ZM27.5869 31.1953L26.9894 30.3934L26.9842 30.3974L27.5869 31.1953ZM18.9512 43.3936L19.9373 43.5596L19.9373 43.5595L18.9512 43.3936ZM17.7861 44.5166L17.8353 45.5154L17.8583 45.5143L17.8812 45.5121L17.7861 44.5166ZM17.667 44.5225V45.5225H17.6916L17.7161 45.5213L17.667 44.5225ZM16.3828 43.3936L15.3967 43.5595L15.3967 43.5596L16.3828 43.3936ZM7.74609 31.1953L8.34881 30.3973L8.34364 30.3935L7.74609 31.1953ZM1 17.7412H0V17.7412L1 17.7412ZM17.667 1V2C26.3156 2 33.334 9.04316 33.334 17.7412H34.334H35.334C35.334 7.94697 27.4285 0 17.667 0V1ZM34.334 17.7412L33.334 17.7412C33.334 22.9263 30.84 27.5242 26.9894 30.3934L27.5869 31.1953L28.1844 31.9972C32.5215 28.7655 35.334 23.5827 35.334 17.7412L34.334 17.7412ZM27.5869 31.1953L26.9842 30.3974C23.8312 32.7789 19.0564 36.7409 17.965 43.2276L18.9512 43.3936L19.9373 43.5595C20.8884 37.9065 25.0607 34.3566 28.1896 31.9933L27.5869 31.1953ZM18.9512 43.3936L17.9651 43.2275C17.9337 43.4137 17.7952 43.5112 17.691 43.5211L17.7861 44.5166L17.8812 45.5121C18.9576 45.4092 19.7679 44.5656 19.9373 43.5596L18.9512 43.3936ZM17.7861 44.5166L17.737 43.5178L17.6179 43.5237L17.667 44.5225L17.7161 45.5213L17.8353 45.5154L17.7861 44.5166ZM17.667 44.5225V43.5225C17.5567 43.5225 17.4028 43.4288 17.3689 43.2275L16.3828 43.3936L15.3967 43.5596C15.5769 44.6297 16.4879 45.5225 17.667 45.5225V44.5225ZM16.3828 43.3936L17.369 43.2276C16.2775 36.7404 11.5017 32.7787 8.3488 30.3973L7.74609 31.1953L7.14339 31.9933C10.2725 34.3567 14.4455 37.9061 15.3967 43.5595L16.3828 43.3936ZM7.74609 31.1953L8.34364 30.3935C4.49347 27.5243 2.00001 22.9261 2 17.7412L1 17.7412L0 17.7412C9.59635e-06 23.5823 2.81188 28.7654 7.14855 31.9972L7.74609 31.1953ZM1 17.7412H2C2 9.04318 9.01843 2.00003 17.667 2L17.667 1L17.667 0C7.9055 3.38554e-05 0 7.94698 0 17.7412H1Z" fill="url(#paint0_linear_774_10635)" mask="url(#path-1-outside-1_774_10635)"/>
<path d="M25.7499 16.375C25.6197 16.3742 25.4929 16.3327 25.3874 16.2563L16.9999 10.2688L8.61244 16.2563C8.47788 16.336 8.31833 16.3623 8.16529 16.3301C8.01225 16.298 7.87684 16.2096 7.78579 16.0824C7.69474 15.9552 7.65467 15.7986 7.67349 15.6433C7.69231 15.4881 7.76865 15.3455 7.88744 15.2438L16.6374 8.99379C16.7433 8.91843 16.87 8.87793 16.9999 8.87793C17.1299 8.87793 17.2566 8.91843 17.3624 8.99379L26.1124 15.2438C26.2191 15.321 26.2987 15.43 26.3398 15.5552C26.3809 15.6804 26.3813 15.8153 26.3411 15.9408C26.3009 16.0662 26.2221 16.1758 26.1159 16.2538C26.0098 16.3318 25.8817 16.3742 25.7499 16.375Z" fill="url(#paint1_linear_774_10635)"/>
<path d="M10.125 12.625C9.95924 12.625 9.80027 12.5592 9.68306 12.4419C9.56585 12.3247 9.5 12.1658 9.5 12V9.5C9.5 9.33424 9.56585 9.17527 9.68306 9.05806C9.80027 8.94085 9.95924 8.875 10.125 8.875H12.625C12.7908 8.875 12.9497 8.94085 13.0669 9.05806C13.1842 9.17527 13.25 9.33424 13.25 9.5C13.25 9.66576 13.1842 9.82473 13.0669 9.94194C12.9497 10.0592 12.7908 10.125 12.625 10.125H10.75V12C10.75 12.1658 10.6842 12.3247 10.5669 12.4419C10.4497 12.5592 10.2908 12.625 10.125 12.625Z" fill="url(#paint2_linear_774_10635)"/>
<path d="M22.625 25.125H19.5C19.3342 25.125 19.1753 25.0592 19.0581 24.9419C18.9408 24.8247 18.875 24.6658 18.875 24.5V20.125H15.125V24.5C15.125 24.6658 15.0592 24.8247 14.9419 24.9419C14.8247 25.0592 14.6658 25.125 14.5 25.125H11.375C10.8777 25.125 10.4008 24.9275 10.0492 24.5758C9.69754 24.2242 9.5 23.7473 9.5 23.25V17C9.5 16.8342 9.56585 16.6753 9.68306 16.5581C9.80027 16.4408 9.95924 16.375 10.125 16.375C10.2908 16.375 10.4497 16.4408 10.5669 16.5581C10.6842 16.6753 10.75 16.8342 10.75 17V23.25C10.75 23.4158 10.8158 23.5747 10.9331 23.6919C11.0503 23.8092 11.2092 23.875 11.375 23.875H13.875V19.5C13.875 19.3342 13.9408 19.1753 14.0581 19.0581C14.1753 18.9408 14.3342 18.875 14.5 18.875H19.5C19.6658 18.875 19.8247 18.9408 19.9419 19.0581C20.0592 19.1753 20.125 19.3342 20.125 19.5V23.875H22.625C22.7908 23.875 22.9497 23.8092 23.0669 23.6919C23.1842 23.5747 23.25 23.4158 23.25 23.25V17C23.25 16.8342 23.3158 16.6753 23.4331 16.5581C23.5503 16.4408 23.7092 16.375 23.875 16.375C24.0408 16.375 24.1997 16.4408 24.3169 16.5581C24.4342 16.6753 24.5 16.8342 24.5 17V23.25C24.5 23.7473 24.3025 24.2242 23.9508 24.5758C23.5992 24.9275 23.1223 25.125 22.625 25.125Z" fill="url(#paint3_linear_774_10635)"/>
<defs>
<linearGradient id="paint0_linear_774_10635" x1="17.667" y1="1" x2="17.667" y2="44.5225" gradientUnits="userSpaceOnUse">
<stop stop-color="white"/>
<stop offset="1" stop-color="white" stop-opacity="0.35"/>
</linearGradient>
<linearGradient id="paint1_linear_774_10635" x1="17.0199" y1="8.87793" x2="17.0199" y2="16.375" gradientUnits="userSpaceOnUse">
<stop stop-color="white"/>
<stop offset="1" stop-color="white" stop-opacity="0.35"/>
</linearGradient>
<linearGradient id="paint2_linear_774_10635" x1="11.375" y1="8.875" x2="11.375" y2="12.625" gradientUnits="userSpaceOnUse">
<stop stop-color="white"/>
<stop offset="1" stop-color="white" stop-opacity="0.35"/>
</linearGradient>
<linearGradient id="paint3_linear_774_10635" x1="17" y1="16.375" x2="17" y2="25.125" gradientUnits="userSpaceOnUse">
<stop stop-color="white"/>
<stop offset="1" stop-color="white" stop-opacity="0.35"/>
</linearGradient>
</defs>
</svg>
